<svg xmlns="http://www.w3.org/2000/svg" xmlns:xlink="http://www.w3.org/1999/xlink" width="1000" zoomAndPan="magnify" viewBox="0 0 750 749.999995" height="1000" preserveAspectRatio="xMidYMid meet" version="1.0"><defs><g/><clipPath id="418322557a"><path d="M 375 0 C 167.894531 0 0 167.894531 0 375 C 0 582.105469 167.894531 750 375 750 C 582.105469 750 750 582.105469 750 375 C 750 167.894531 582.105469 0 375 0 Z M 375 0 " clip-rule="nonzero"/></clipPath><linearGradient x1="0" gradientTransform="matrix(2.929687, 0, 0, 2.929687, 0.00000265, 0.00002)" y1="0" x2="0" gradientUnits="userSpaceOnUse" y2="255.999989" id="30d98463e6"><stop stop-opacity="1" stop-color="rgb(7.499695%, 21.598816%, 36.499023%)" offset="0"/><stop stop-opacity="1" stop-color="rgb(7.489014%, 21.743774%, 36.585999%)" offset="0.0078125"/><stop stop-opacity="1" stop-color="rgb(7.470703%, 22.035217%, 36.759949%)" offset="0.015625"/><stop stop-opacity="1" stop-color="rgb(7.452393%, 22.325134%, 36.933899%)" offset="0.0234375"/><stop stop-opacity="1" stop-color="rgb(7.434082%, 22.616577%, 37.109375%)" offset="0.03125"/><stop stop-opacity="1" stop-color="rgb(7.414246%, 22.906494%, 37.283325%)" offset="0.0390625"/><stop stop-opacity="1" stop-color="rgb(7.395935%, 23.197937%, 37.457275%)" offset="0.046875"/><stop stop-opacity="1" stop-color="rgb(7.377625%, 23.487854%, 37.631226%)" offset="0.0546875"/><stop stop-opacity="1" stop-color="rgb(7.357788%, 23.779297%, 37.805176%)" offset="0.0625"/><stop stop-opacity="1" stop-color="rgb(7.339478%, 24.069214%, 37.980652%)" offset="0.0703125"/><stop stop-opacity="1" stop-color="rgb(7.321167%, 24.359131%, 38.154602%)" offset="0.078125"/><stop stop-opacity="1" stop-color="rgb(7.302856%, 24.650574%, 38.328552%)" offset="0.0859375"/><stop stop-opacity="1" stop-color="rgb(7.28302%, 24.940491%, 38.502502%)" offset="0.09375"/><stop stop-opacity="1" stop-color="rgb(7.264709%, 25.231934%, 38.676453%)" offset="0.101562"/><stop stop-opacity="1" stop-color="rgb(7.246399%, 25.521851%, 38.850403%)" offset="0.109375"/><stop stop-opacity="1" stop-color="rgb(7.226562%, 25.813293%, 39.025879%)" offset="0.117188"/><stop stop-opacity="1" stop-color="rgb(7.208252%, 26.10321%, 39.199829%)" offset="0.125"/><stop stop-opacity="1" stop-color="rgb(7.189941%, 26.394653%, 39.373779%)" offset="0.132812"/><stop stop-opacity="1" stop-color="rgb(7.171631%, 26.68457%, 39.547729%)" offset="0.140625"/><stop stop-opacity="1" stop-color="rgb(7.151794%, 26.976013%, 39.72168%)" offset="0.148438"/><stop stop-opacity="1" stop-color="rgb(7.133484%, 27.26593%, 39.89563%)" offset="0.15625"/><stop stop-opacity="1" stop-color="rgb(7.115173%, 27.557373%, 40.071106%)" offset="0.164062"/><stop stop-opacity="1" stop-color="rgb(7.095337%, 27.84729%, 40.245056%)" offset="0.171875"/><stop stop-opacity="1" stop-color="rgb(7.077026%, 28.137207%, 40.419006%)" offset="0.179688"/><stop stop-opacity="1" stop-color="rgb(7.058716%, 28.42865%, 40.592957%)" offset="0.1875"/><stop stop-opacity="1" stop-color="rgb(7.040405%, 28.718567%, 40.766907%)" offset="0.195312"/><stop stop-opacity="1" stop-color="rgb(7.020569%, 29.01001%, 40.942383%)" offset="0.203125"/><stop stop-opacity="1" stop-color="rgb(7.002258%, 29.299927%, 41.116333%)" offset="0.210938"/><stop stop-opacity="1" stop-color="rgb(6.983948%, 29.59137%, 41.290283%)" offset="0.21875"/><stop stop-opacity="1" stop-color="rgb(6.964111%, 29.881287%, 41.464233%)" offset="0.226562"/><stop stop-opacity="1" stop-color="rgb(6.945801%, 30.172729%, 41.638184%)" offset="0.234375"/><stop stop-opacity="1" stop-color="rgb(6.92749%, 30.462646%, 41.812134%)" offset="0.242188"/><stop stop-opacity="1" stop-color="rgb(6.907654%, 30.754089%, 41.98761%)" offset="0.25"/><stop stop-opacity="1" stop-color="rgb(6.889343%, 31.044006%, 42.16156%)" offset="0.257812"/><stop stop-opacity="1" stop-color="rgb(6.871033%, 31.335449%, 42.33551%)" offset="0.265625"/><stop stop-opacity="1" stop-color="rgb(6.852722%, 31.625366%, 42.50946%)" offset="0.273438"/><stop stop-opacity="1" stop-color="rgb(6.832886%, 31.916809%, 42.683411%)" offset="0.28125"/><stop stop-opacity="1" stop-color="rgb(6.814575%, 32.206726%, 42.857361%)" offset="0.289062"/><stop stop-opacity="1" stop-color="rgb(6.796265%, 32.496643%, 43.032837%)" offset="0.296875"/><stop stop-opacity="1" stop-color="rgb(6.776428%, 32.788086%, 43.206787%)" offset="0.304688"/><stop stop-opacity="1" stop-color="rgb(6.758118%, 33.078003%, 43.380737%)" offset="0.3125"/><stop stop-opacity="1" stop-color="rgb(6.739807%, 33.369446%, 43.554688%)" offset="0.320312"/><stop stop-opacity="1" stop-color="rgb(6.721497%, 33.659363%, 43.728638%)" offset="0.328125"/><stop stop-opacity="1" stop-color="rgb(6.70166%, 33.950806%, 43.904114%)" offset="0.335938"/><stop stop-opacity="1" stop-color="rgb(6.68335%, 34.240723%, 44.078064%)" offset="0.34375"/><stop stop-opacity="1" stop-color="rgb(6.665039%, 34.532166%, 44.252014%)" offset="0.351562"/><stop stop-opacity="1" stop-color="rgb(6.645203%, 34.822083%, 44.425964%)" offset="0.359375"/><stop stop-opacity="1" stop-color="rgb(6.626892%, 35.113525%, 44.599915%)" offset="0.367188"/><stop stop-opacity="1" stop-color="rgb(6.608582%, 35.403442%, 44.773865%)" offset="0.375"/><stop stop-opacity="1" stop-color="rgb(6.590271%, 35.694885%, 44.949341%)" offset="0.382812"/><stop stop-opacity="1" stop-color="rgb(6.570435%, 35.984802%, 45.123291%)" offset="0.390625"/><stop stop-opacity="1" stop-color="rgb(6.552124%, 36.274719%, 45.297241%)" offset="0.398438"/><stop stop-opacity="1" stop-color="rgb(6.533813%, 36.566162%, 45.471191%)" offset="0.40625"/><stop stop-opacity="1" stop-color="rgb(6.513977%, 36.856079%, 45.645142%)" offset="0.414062"/><stop stop-opacity="1" stop-color="rgb(6.495667%, 37.147522%, 45.819092%)" offset="0.421875"/><stop stop-opacity="1" stop-color="rgb(6.477356%, 37.437439%, 45.994568%)" offset="0.429688"/><stop stop-opacity="1" stop-color="rgb(6.459045%, 37.728882%, 46.168518%)" offset="0.4375"/><stop stop-opacity="1" stop-color="rgb(6.439209%, 38.018799%, 46.342468%)" offset="0.445312"/><stop stop-opacity="1" stop-color="rgb(6.420898%, 38.310242%, 46.516418%)" offset="0.453125"/><stop stop-opacity="1" stop-color="rgb(6.402588%, 38.600159%, 46.690369%)" offset="0.460938"/><stop stop-opacity="1" stop-color="rgb(6.382751%, 38.891602%, 46.865845%)" offset="0.46875"/><stop stop-opacity="1" stop-color="rgb(6.364441%, 39.181519%, 47.039795%)" offset="0.476562"/><stop stop-opacity="1" stop-color="rgb(6.34613%, 39.472961%, 47.213745%)" offset="0.484375"/><stop stop-opacity="1" stop-color="rgb(6.32782%, 39.762878%, 47.387695%)" offset="0.492188"/><stop stop-opacity="1" stop-color="rgb(6.307983%, 40.054321%, 47.561646%)" offset="0.5"/><stop stop-opacity="1" stop-color="rgb(6.289673%, 40.344238%, 47.735596%)" offset="0.507812"/><stop stop-opacity="1" stop-color="rgb(6.271362%, 40.634155%, 47.911072%)" offset="0.515625"/><stop stop-opacity="1" stop-color="rgb(6.251526%, 40.925598%, 48.085022%)" offset="0.523438"/><stop stop-opacity="1" stop-color="rgb(6.233215%, 41.215515%, 48.258972%)" offset="0.53125"/><stop stop-opacity="1" stop-color="rgb(6.214905%, 41.506958%, 48.432922%)" offset="0.539062"/><stop stop-opacity="1" stop-color="rgb(6.196594%, 41.796875%, 48.606873%)" offset="0.546875"/><stop stop-opacity="1" stop-color="rgb(6.176758%, 42.088318%, 48.780823%)" offset="0.554688"/><stop stop-opacity="1" stop-color="rgb(6.158447%, 42.378235%, 48.956299%)" offset="0.5625"/><stop stop-opacity="1" stop-color="rgb(6.140137%, 42.669678%, 49.130249%)" offset="0.570312"/><stop stop-opacity="1" stop-color="rgb(6.1203%, 42.959595%, 49.304199%)" offset="0.578125"/><stop stop-opacity="1" stop-color="rgb(6.10199%, 43.251038%, 49.478149%)" offset="0.585938"/><stop stop-opacity="1" stop-color="rgb(6.083679%, 43.540955%, 49.6521%)" offset="0.59375"/><stop stop-opacity="1" stop-color="rgb(6.065369%, 43.832397%, 49.827576%)" offset="0.601562"/><stop stop-opacity="1" stop-color="rgb(6.045532%, 44.122314%, 50.001526%)" offset="0.609375"/><stop stop-opacity="1" stop-color="rgb(6.027222%, 44.412231%, 50.175476%)" offset="0.617188"/><stop stop-opacity="1" stop-color="rgb(6.008911%, 44.703674%, 50.349426%)" offset="0.625"/><stop stop-opacity="1" stop-color="rgb(5.989075%, 44.993591%, 50.523376%)" offset="0.632812"/><stop stop-opacity="1" stop-color="rgb(5.970764%, 45.285034%, 50.697327%)" offset="0.640625"/><stop stop-opacity="1" stop-color="rgb(5.952454%, 45.574951%, 50.872803%)" offset="0.648438"/><stop stop-opacity="1" stop-color="rgb(5.934143%, 45.866394%, 51.046753%)" offset="0.65625"/><stop stop-opacity="1" stop-color="rgb(5.914307%, 46.156311%, 51.220703%)" offset="0.664062"/><stop stop-opacity="1" stop-color="rgb(5.895996%, 46.447754%, 51.394653%)" offset="0.671875"/><stop stop-opacity="1" stop-color="rgb(5.877686%, 46.737671%, 51.568604%)" offset="0.679688"/><stop stop-opacity="1" stop-color="rgb(5.857849%, 47.029114%, 51.742554%)" offset="0.6875"/><stop stop-opacity="1" stop-color="rgb(5.839539%, 47.319031%, 51.91803%)" offset="0.695312"/><stop stop-opacity="1" stop-color="rgb(5.821228%, 47.610474%, 52.09198%)" offset="0.703125"/><stop stop-opacity="1" stop-color="rgb(5.801392%, 47.900391%, 52.26593%)" offset="0.710938"/><stop stop-opacity="1" stop-color="rgb(5.783081%, 48.190308%, 52.43988%)" offset="0.71875"/><stop stop-opacity="1" stop-color="rgb(5.764771%, 48.48175%, 52.613831%)" offset="0.726562"/><stop stop-opacity="1" stop-color="rgb(5.74646%, 48.771667%, 52.789307%)" offset="0.734375"/><stop stop-opacity="1" stop-color="rgb(5.726624%, 49.06311%, 52.963257%)" offset="0.742188"/><stop stop-opacity="1" stop-color="rgb(5.708313%, 49.353027%, 53.137207%)" offset="0.75"/><stop stop-opacity="1" stop-color="rgb(5.690002%, 49.64447%, 53.311157%)" offset="0.757812"/><stop stop-opacity="1" stop-color="rgb(5.670166%, 49.934387%, 53.485107%)" offset="0.765625"/><stop stop-opacity="1" stop-color="rgb(5.651855%, 50.22583%, 53.659058%)" offset="0.773438"/><stop stop-opacity="1" stop-color="rgb(5.633545%, 50.515747%, 53.834534%)" offset="0.78125"/><stop stop-opacity="1" stop-color="rgb(5.615234%, 50.80719%, 54.008484%)" offset="0.789062"/><stop stop-opacity="1" stop-color="rgb(5.595398%, 51.097107%, 54.182434%)" offset="0.796875"/><stop stop-opacity="1" stop-color="rgb(5.577087%, 51.38855%, 54.356384%)" offset="0.804688"/><stop stop-opacity="1" stop-color="rgb(5.558777%, 51.678467%, 54.530334%)" offset="0.8125"/><stop stop-opacity="1" stop-color="rgb(5.53894%, 51.96991%, 54.704285%)" offset="0.820312"/><stop stop-opacity="1" stop-color="rgb(5.52063%, 52.259827%, 54.879761%)" offset="0.828125"/><stop stop-opacity="1" stop-color="rgb(5.502319%, 52.549744%, 55.053711%)" offset="0.835938"/><stop stop-opacity="1" stop-color="rgb(5.484009%, 52.841187%, 55.227661%)" offset="0.84375"/><stop stop-opacity="1" stop-color="rgb(5.464172%, 53.131104%, 55.401611%)" offset="0.851562"/><stop stop-opacity="1" stop-color="rgb(5.445862%, 53.422546%, 55.575562%)" offset="0.859375"/><stop stop-opacity="1" stop-color="rgb(5.427551%, 53.712463%, 55.749512%)" offset="0.867188"/><stop stop-opacity="1" stop-color="rgb(5.407715%, 54.003906%, 55.924988%)" offset="0.875"/><stop stop-opacity="1" stop-color="rgb(5.389404%, 54.293823%, 56.098938%)" offset="0.882812"/><stop stop-opacity="1" stop-color="rgb(5.371094%, 54.585266%, 56.272888%)" offset="0.890625"/><stop stop-opacity="1" stop-color="rgb(5.352783%, 54.875183%, 56.446838%)" offset="0.898438"/><stop stop-opacity="1" stop-color="rgb(5.332947%, 55.166626%, 56.620789%)" offset="0.90625"/><stop stop-opacity="1" stop-color="rgb(5.314636%, 55.456543%, 56.796265%)" offset="0.914062"/><stop stop-opacity="1" stop-color="rgb(5.296326%, 55.747986%, 56.970215%)" offset="0.921875"/><stop stop-opacity="1" stop-color="rgb(5.276489%, 56.037903%, 57.144165%)" offset="0.929688"/><stop stop-opacity="1" stop-color="rgb(5.258179%, 56.32782%, 57.318115%)" offset="0.9375"/><stop stop-opacity="1" stop-color="rgb(5.239868%, 56.619263%, 57.492065%)" offset="0.945312"/><stop stop-opacity="1" stop-color="rgb(5.221558%, 56.90918%, 57.666016%)" offset="0.953125"/><stop stop-opacity="1" stop-color="rgb(5.201721%, 57.200623%, 57.841492%)" offset="0.960938"/><stop stop-opacity="1" stop-color="rgb(5.183411%, 57.49054%, 58.015442%)" offset="0.96875"/><stop stop-opacity="1" stop-color="rgb(5.1651%, 57.781982%, 58.189392%)" offset="0.976562"/><stop stop-opacity="1" stop-color="rgb(5.145264%, 58.071899%, 58.363342%)" offset="0.984375"/><stop stop-opacity="1" stop-color="rgb(5.126953%, 58.363342%, 58.537292%)" offset="0.992188"/><stop stop-opacity="1" stop-color="rgb(5.108643%, 58.653259%, 58.711243%)" offset="1"/></linearGradient></defs><g clip-path="url(#418322557a)"><rect x="-75" fill="url(#30d98463e6)" width="900" y="-74.999999" height="899.999994"/></g><path fill="#9effff" d="M 375 750 C 167.824219 750 0 581.019531 0 375 C 0 168.980469 167.824219 0 375 0 C 582.175781 0 750 167.824219 750 375 C 750 582.175781 581.019531 750 375 750 Z M 375 23.148438 C 180.554688 23.148438 23.148438 180.554688 23.148438 375 C 23.148438 569.445312 180.554688 726.851562 375 726.851562 C 569.445312 726.851562 726.851562 569.445312 726.851562 375 C 726.851562 180.554688 568.285156 23.148438 375 23.148438 Z M 375 23.148438 " fill-opacity="1" fill-rule="nonzero"/><g fill="#5ce1e6" fill-opacity="0.302"><g transform="translate(181.636113, 616.091099)"><g><path d="M 221.597656 -292.980469 L 144.628906 -416.507812 C 139.664062 -422.714844 133.457031 -428.300781 126.007812 -433.265625 C 118.558594 -437.609375 109.246094 -440.09375 99.316406 -440.09375 C 90.625 -440.09375 82.554688 -438.230469 76.347656 -435.128906 C 70.140625 -432.023438 64.554688 -428.300781 60.210938 -423.335938 C 55.863281 -418.367188 52.761719 -413.402344 50.277344 -407.816406 C 47.796875 -401.609375 47.175781 -396.023438 47.175781 -391.054688 C 47.175781 -382.367188 49.65625 -373.675781 54.625 -365.605469 L 166.976562 -186.21875 C 168.214844 -184.976562 168.835938 -183.113281 168.835938 -180.632812 L 168.835938 -49.039062 C 168.835938 -43.449219 169.457031 -37.863281 171.941406 -32.277344 C 174.421875 -26.070312 177.527344 -21.105469 181.871094 -16.140625 C 186.21875 -11.171875 191.804688 -6.828125 198.632812 -3.722656 C 204.839844 -0.621094 212.910156 0.621094 221.597656 0.621094 C 230.289062 0.621094 237.738281 -0.621094 243.945312 -3.722656 C 250.152344 -6.828125 255.738281 -10.550781 260.082031 -15.519531 C 264.429688 -20.484375 267.53125 -25.449219 270.015625 -31.65625 C 272.5 -37.242188 273.738281 -42.828125 273.738281 -48.417969 L 273.738281 -180.011719 C 273.738281 -182.492188 274.359375 -184.355469 275.601562 -185.597656 L 387.953125 -364.984375 C 392.917969 -373.054688 395.402344 -381.746094 395.402344 -390.4375 C 395.402344 -395.402344 394.160156 -400.988281 392.296875 -407.195312 C 389.816406 -412.78125 386.710938 -417.746094 382.367188 -422.714844 C 378.019531 -427.679688 372.433594 -431.402344 366.226562 -434.507812 C 359.398438 -437.609375 351.949219 -439.472656 343.261719 -439.472656 C 332.707031 -439.472656 323.398438 -436.992188 315.949219 -432.644531 C 308.5 -427.679688 302.292969 -422.09375 298.570312 -415.886719 Z M 221.597656 -292.980469 "/></g></g></g><g fill="#5ce1e6" fill-opacity="0.502"><g transform="translate(158.108362, 621.092075)"><g><path d="M 221.597656 -292.980469 L 144.628906 -416.507812 C 139.664062 -422.714844 133.457031 -428.300781 126.007812 -433.265625 C 118.558594 -437.609375 109.246094 -440.09375 99.316406 -440.09375 C 90.625 -440.09375 82.554688 -438.230469 76.347656 -435.128906 C 70.140625 -432.023438 64.554688 -428.300781 60.210938 -423.335938 C 55.863281 -418.367188 52.761719 -413.402344 50.277344 -407.816406 C 47.796875 -401.609375 47.175781 -396.023438 47.175781 -391.054688 C 47.175781 -382.367188 49.65625 -373.675781 54.625 -365.605469 L 166.976562 -186.21875 C 168.214844 -184.976562 168.835938 -183.113281 168.835938 -180.632812 L 168.835938 -49.039062 C 168.835938 -43.449219 169.457031 -37.863281 171.941406 -32.277344 C 174.421875 -26.070312 177.527344 -21.105469 181.871094 -16.140625 C 186.21875 -11.171875 191.804688 -6.828125 198.632812 -3.722656 C 204.839844 -0.621094 212.910156 0.621094 221.597656 0.621094 C 230.289062 0.621094 237.738281 -0.621094 243.945312 -3.722656 C 250.152344 -6.828125 255.738281 -10.550781 260.082031 -15.519531 C 264.429688 -20.484375 267.53125 -25.449219 270.015625 -31.65625 C 272.5 -37.242188 273.738281 -42.828125 273.738281 -48.417969 L 273.738281 -180.011719 C 273.738281 -182.492188 274.359375 -184.355469 275.601562 -185.597656 L 387.953125 -364.984375 C 392.917969 -373.054688 395.402344 -381.746094 395.402344 -390.4375 C 395.402344 -395.402344 394.160156 -400.988281 392.296875 -407.195312 C 389.816406 -412.78125 386.710938 -417.746094 382.367188 -422.714844 C 378.019531 -427.679688 372.433594 -431.402344 366.226562 -434.507812 C 359.398438 -437.609375 351.949219 -439.472656 343.261719 -439.472656 C 332.707031 -439.472656 323.398438 -436.992188 315.949219 -432.644531 C 308.5 -427.679688 302.292969 -422.09375 298.570312 -415.886719 Z M 221.597656 -292.980469 "/></g></g></g><g fill="#b3fae7" fill-opacity="1"><g transform="translate(134.580614, 626.093053)"><g><path d="M 221.597656 -292.980469 L 144.628906 -416.507812 C 139.664062 -422.714844 133.457031 -428.300781 126.007812 -433.265625 C 118.558594 -437.609375 109.246094 -440.09375 99.316406 -440.09375 C 90.625 -440.09375 82.554688 -438.230469 76.347656 -435.128906 C 70.140625 -432.023438 64.554688 -428.300781 60.210938 -423.335938 C 55.863281 -418.367188 52.761719 -413.402344 50.277344 -407.816406 C 47.796875 -401.609375 47.175781 -396.023438 47.175781 -391.054688 C 47.175781 -382.367188 49.65625 -373.675781 54.625 -365.605469 L 166.976562 -186.21875 C 168.214844 -184.976562 168.835938 -183.113281 168.835938 -180.632812 L 168.835938 -49.039062 C 168.835938 -43.449219 169.457031 -37.863281 171.941406 -32.277344 C 174.421875 -26.070312 177.527344 -21.105469 181.871094 -16.140625 C 186.21875 -11.171875 191.804688 -6.828125 198.632812 -3.722656 C 204.839844 -0.621094 212.910156 0.621094 221.597656 0.621094 C 230.289062 0.621094 237.738281 -0.621094 243.945312 -3.722656 C 250.152344 -6.828125 255.738281 -10.550781 260.082031 -15.519531 C 264.429688 -20.484375 267.53125 -25.449219 270.015625 -31.65625 C 272.5 -37.242188 273.738281 -42.828125 273.738281 -48.417969 L 273.738281 -180.011719 C 273.738281 -182.492188 274.359375 -184.355469 275.601562 -185.597656 L 387.953125 -364.984375 C 392.917969 -373.054688 395.402344 -381.746094 395.402344 -390.4375 C 395.402344 -395.402344 394.160156 -400.988281 392.296875 -407.195312 C 389.816406 -412.78125 386.710938 -417.746094 382.367188 -422.714844 C 378.019531 -427.679688 372.433594 -431.402344 366.226562 -434.507812 C 359.398438 -437.609375 351.949219 -439.472656 343.261719 -439.472656 C 332.707031 -439.472656 323.398438 -436.992188 315.949219 -432.644531 C 308.5 -427.679688 302.292969 -422.09375 298.570312 -415.886719 Z M 221.597656 -292.980469 "/></g></g></g></svg>